<?xml version="1.0" encoding="iso-8859-1"?>
<!-- Uploaded to: SVG Repo, www.svgrepo.com, Generator: SVG Repo Mixer Tools -->
<svg version="1.1" id="Layer_1" xmlns="http://www.w3.org/2000/svg" xmlns:xlink="http://www.w3.org/1999/xlink" 
	 viewBox="0 0 491.535 491.535" xml:space="preserve">
<g>
	<rect x="119.432" y="109.194" style="fill:#EBF0F3;" width="252.672" height="382.31"/>
	<rect x="0.008" y="216.525" style="fill:#EBF0F3;" width="491.52" height="275.011"/>
</g>
<g>
	<rect x="372.129" y="216.525" style="fill:#E1E6E9;" width="17.874" height="275.011"/>
	<rect x="101.553" y="216.525" style="fill:#E1E6E9;" width="17.874" height="275.011"/>
</g>
<rect x="194.122" y="353.997" style="fill:#DC8744;" width="103.27" height="137.508"/>
<rect x="22.019" y="253.082" style="fill:#27A2DB;" width="57.518" height="79.34"/>
<rect x="22.019" y="324.506" style="fill:#2D93BA;" width="57.518" height="7.931"/>
<rect x="22.019" y="375.603" style="fill:#27A2DB;" width="57.518" height="79.34"/>
<rect x="22.019" y="446.976" style="fill:#2D93BA;" width="57.518" height="7.936"/>
<rect x="412.014" y="253.082" style="fill:#27A2DB;" width="57.518" height="79.34"/>
<rect x="412.014" y="324.506" style="fill:#2D93BA;" width="57.518" height="7.931"/>
<rect x="412.014" y="375.603" style="fill:#27A2DB;" width="57.518" height="79.34"/>
<rect x="412.014" y="446.976" style="fill:#2D93BA;" width="57.518" height="7.936"/>
<rect x="260.385" y="155.034" style="fill:#27A2DB;" width="76.38" height="69.786"/>
<rect x="260.385" y="217.841" style="fill:#2D93BA;" width="76.38" height="6.979"/>
<rect x="260.385" y="239.181" style="fill:#27A2DB;" width="76.38" height="69.786"/>
<rect x="260.385" y="301.988" style="fill:#2D93BA;" width="76.38" height="6.979"/>
<rect x="154.785" y="155.034" style="fill:#27A2DB;" width="76.38" height="69.786"/>
<rect x="154.785" y="217.841" style="fill:#2D93BA;" width="76.38" height="6.979"/>
<rect x="154.785" y="239.181" style="fill:#27A2DB;" width="76.38" height="69.786"/>
<rect x="154.785" y="301.988" style="fill:#2D93BA;" width="76.38" height="6.979"/>
<polygon style="fill:#E56353;" points="245.768,0 79.956,121.562 411.58,121.562 "/>
</svg>