<?xml version="1.0" encoding="iso-8859-1"?>
<!-- Uploaded to: SVG Repo, www.svgrepo.com, Generator: SVG Repo Mixer Tools -->
<svg height="800px" width="800px" version="1.1" id="Layer_1" xmlns="http://www.w3.org/2000/svg" xmlns:xlink="http://www.w3.org/1999/xlink" 
	 viewBox="0 0 512 512" xml:space="preserve">
<path style="fill:#4FC0E8;" d="M512,256.006C512,397.402,397.394,512.004,256.004,512C114.606,512.004,0,397.402,0,256.006
	C-0.007,114.61,114.606,0,256.004,0C397.394,0,512,114.614,512,256.006z"/>
<path style="fill:#3DAED9;" d="M512,256.005c0-30.445-5.341-59.635-15.092-86.721c-0.178-0.16-0.31-0.365-0.509-0.509
	c-0.429-0.591-75.237-75.399-75.829-75.829c-1.257-1.731-3.197-2.931-5.502-2.931H96.932c-3.823,0-6.916,3.097-6.916,6.916v318.137
	c0,2.303,1.199,4.244,2.93,5.501c0.43,0.592,0.926,1.087,1.518,1.517c0.429,0.592,73.721,73.884,74.313,74.314
	c0.146,0.202,0.353,0.336,0.515,0.515c27.082,9.747,56.27,15.086,86.711,15.085C397.394,512.004,512,397.401,512,256.005z"/>
<g>
	<path style="fill:#F4F6F9;" d="M415.068,90.016H96.932c-3.823,0-6.916,3.097-6.916,6.916v318.137c0,3.82,3.093,6.916,6.916,6.916
		h318.137c3.823,0,6.916-3.097,6.916-6.916V96.932C421.984,93.113,418.891,90.016,415.068,90.016z M408.151,408.151H103.847V103.847
		h304.304V408.151z"/>
	<path style="fill:#F4F6F9;" d="M152.26,366.656h69.161c3.823,0,6.916-3.097,6.916-6.916v-69.16h62.244v69.159
		c0,3.82,3.093,6.916,6.916,6.916h62.244c3.823,0,6.916-3.097,6.916-6.916V152.26c0-3.82-3.093-6.916-6.916-6.916h-62.244
		c-3.823,0-6.916,3.097-6.916,6.916v69.161h-62.244V152.26c0-3.82-3.093-6.916-6.916-6.916H152.26c-3.823,0-6.916,3.097-6.916,6.916
		v207.481C145.344,363.559,148.437,366.656,152.26,366.656z M159.175,159.175h55.328v69.161c0,3.82,3.093,6.916,6.916,6.916h76.076
		c3.823,0,6.916-3.097,6.916-6.916v-69.161h48.412v193.648h-48.412v-69.159c0-3.82-3.093-6.916-6.916-6.916H221.42
		c-3.823,0-6.916,3.097-6.916,6.916v69.159h-55.328L159.175,159.175L159.175,159.175z"/>
</g>
</svg>