<!DOCTYPE svg PUBLIC "-//W3C//DTD SVG 1.1//EN" "http://www.w3.org/Graphics/SVG/1.1/DTD/svg11.dtd">
<!-- Uploaded to: SVG Repo, www.svgrepo.com, Transformed by: SVG Repo Mixer Tools -->
<svg fill="#ffffff" width="800px" height="800px" viewBox="0 0 24.00 24.00" id="house-storm" data-name="Flat Color" xmlns="http://www.w3.org/2000/svg" class="icon flat-color" stroke="#ffffff" stroke-width="0.8640000000000001">
<g id="SVGRepo_bgCarrier" stroke-width="0"/>
<g id="SVGRepo_tracerCarrier" stroke-linecap="round" stroke-linejoin="round"/>
<g id="SVGRepo_iconCarrier">
<path id="primary" d="M20.58,9.9l-8-5.71a1,1,0,0,0-1.16,0l-8,5.71a1,1,0,0,0,1.16,1.62l.42-.3V21a1,1,0,0,0,1,1H18a1,1,0,0,0,1-1V11.22l.42.3a1,1,0,0,0,.58.19,1,1,0,0,0,.58-1.81Z" style="fill: #ff0000;"/>
<path id="primary-2" data-name="primary" d="M20,22H4a1,1,0,0,1,0-2H20a1,1,0,0,1,0,2Z" style="fill: #ff0000;"/>
<path id="secondary" d="M15,15v6a1,1,0,0,1-1,1H10a1,1,0,0,1-1-1V15a1,1,0,0,1,1-1h4A1,1,0,0,1,15,15Zm1.89-3.55,2-4A1,1,0,0,0,18,6H15.62l1.27-2.55a1,1,0,0,0-1.78-.9l-2,4A1,1,0,0,0,14,8h2.38l-1.27,2.55a1,1,0,0,0,.44,1.34A.93.93,0,0,0,16,12,1,1,0,0,0,16.89,11.45Z" style="fill: #d0d2d2;"/>
</g>
</svg>